<mxfile host="app.diagrams.net" agent="Mozilla/5.0 (Windows NT 10.0; Win64; x64) AppleWebKit/537.36 (KHTML, like Gecko) Chrome/135.0.0.0 Safari/537.36" version="26.2.14">
  <diagram name="Page-1" id="mxgsjIzfeDp1juc3_EA3">
    <mxGraphModel>
      <root>
        <mxCell id="0" />
        <mxCell id="1" parent="0" />
        <mxCell id="2" value="Customer" style="whiteSpace=wrap;strokeWidth=2;" vertex="1" parent="1">
          <mxGeometry x="451" y="8" width="128" height="54" as="geometry" />
        </mxCell>
        <mxCell id="3" value="View Menu" style="whiteSpace=wrap;strokeWidth=2;" vertex="1" parent="1">
          <mxGeometry x="121" y="134" width="137" height="54" as="geometry" />
        </mxCell>
        <mxCell id="4" value="Menu Database" style="shape=cylinder3;boundedLbl=1;backgroundOutline=1;size=10;strokeWidth=2;whiteSpace=wrap;" vertex="1" parent="1">
          <mxGeometry x="162" y="262" width="123" height="76" as="geometry" />
        </mxCell>
        <mxCell id="5" value="Place Order" style="whiteSpace=wrap;strokeWidth=2;" vertex="1" parent="1">
          <mxGeometry x="511" y="134" width="144" height="54" as="geometry" />
        </mxCell>
        <mxCell id="6" value="Restaurant Owner" style="shape=cylinder3;boundedLbl=1;backgroundOutline=1;size=10;strokeWidth=2;whiteSpace=wrap;" vertex="1" parent="1">
          <mxGeometry x="547" y="261" width="143" height="79" as="geometry" />
        </mxCell>
        <mxCell id="7" value="Receive Confirmation" style="whiteSpace=wrap;strokeWidth=2;" vertex="1" parent="1">
          <mxGeometry x="709" y="134" width="214" height="54" as="geometry" />
        </mxCell>
        <mxCell id="8" value="Browses" style="curved=1;startArrow=none;endArrow=block;exitX=0;exitY=0.7;entryX=0.34;entryY=0.01;" edge="1" parent="1" source="2" target="3">
          <mxGeometry relative="1" as="geometry">
            <Array as="points">
              <mxPoint x="138" y="98" />
            </Array>
          </mxGeometry>
        </mxCell>
        <mxCell id="9" value="Fetch Menu Data" style="curved=1;startArrow=none;endArrow=block;exitX=0.13;exitY=1.01;entryX=0;entryY=0.1;" edge="1" parent="1" source="3" target="4">
          <mxGeometry relative="1" as="geometry">
            <Array as="points">
              <mxPoint x="70" y="225" />
            </Array>
          </mxGeometry>
        </mxCell>
        <mxCell id="10" value="Return Menu Data" style="curved=1;startArrow=none;endArrow=block;exitX=1;exitY=0.1;entryX=1;entryY=0.94;" edge="1" parent="1" source="4" target="3">
          <mxGeometry relative="1" as="geometry">
            <Array as="points">
              <mxPoint x="376" y="225" />
            </Array>
          </mxGeometry>
        </mxCell>
        <mxCell id="11" value="Displays Menu" style="curved=1;startArrow=none;endArrow=block;exitX=0.83;exitY=0.01;entryX=0;entryY=0.84;" edge="1" parent="1" source="3" target="2">
          <mxGeometry relative="1" as="geometry">
            <Array as="points">
              <mxPoint x="297" y="98" />
            </Array>
          </mxGeometry>
        </mxCell>
        <mxCell id="12" value="Places Order" style="curved=1;startArrow=none;endArrow=block;exitX=0.17;exitY=1;entryX=0.01;entryY=0.01;" edge="1" parent="1" source="2" target="5">
          <mxGeometry relative="1" as="geometry">
            <Array as="points">
              <mxPoint x="417" y="98" />
            </Array>
          </mxGeometry>
        </mxCell>
        <mxCell id="13" value="Send Order Details" style="curved=1;startArrow=none;endArrow=block;exitX=0;exitY=0.74;entryX=0.49;entryY=0;" edge="1" parent="1" source="5" target="4">
          <mxGeometry relative="1" as="geometry">
            <Array as="points">
              <mxPoint x="221" y="225" />
            </Array>
          </mxGeometry>
        </mxCell>
        <mxCell id="14" value="Inform Order Status" style="curved=1;startArrow=none;endArrow=block;exitX=0.5;exitY=1.01;entryX=0.37;entryY=0;" edge="1" parent="1" source="5" target="6">
          <mxGeometry relative="1" as="geometry">
            <Array as="points">
              <mxPoint x="583" y="225" />
            </Array>
          </mxGeometry>
        </mxCell>
        <mxCell id="15" value="Order Confirmation" style="curved=1;startArrow=none;endArrow=block;exitX=0.97;exitY=0;entryX=0.99;entryY=1.01;" edge="1" parent="1" source="6" target="5">
          <mxGeometry relative="1" as="geometry">
            <Array as="points">
              <mxPoint x="748" y="225" />
            </Array>
          </mxGeometry>
        </mxCell>
        <mxCell id="16" value="Send Confirmation" style="curved=1;startArrow=none;endArrow=block;exitX=0.51;exitY=0.01;entryX=0.74;entryY=1;" edge="1" parent="1" source="5" target="2">
          <mxGeometry relative="1" as="geometry">
            <Array as="points">
              <mxPoint x="587" y="98" />
            </Array>
          </mxGeometry>
        </mxCell>
        <mxCell id="17" value="Receives Confirmation" style="curved=1;startArrow=none;endArrow=block;exitX=1;exitY=0.75;entryX=0.5;entryY=0.01;" edge="1" parent="1" source="2" target="7">
          <mxGeometry relative="1" as="geometry">
            <Array as="points">
              <mxPoint x="815" y="98" />
            </Array>
          </mxGeometry>
        </mxCell>
      </root>
    </mxGraphModel>
  </diagram>
</mxfile>
